#!OML:ASF H:\SpeedWalk\Project 1\Capture day 2\Session 1\male.ASF
:FULLY-SPECIFIED
:DEGREES
251
root -8.374042 18.823342 3.053579 -1.092740 4.246453 9.933673
lowerback 0.553259 -2.748859 -11.375939 
upperback -3.266603 -3.943957 0.126996 
thorax -2.982238 -1.658951 6.600588 
lowerneck -11.949786 0.234120 1.161756 
upperneck 19.062378 0.754259 -3.273307 
head 7.871125 0.124349 -1.197963 
rclavicle 0.000000 0.000000 
rhumerus -47.162307 -17.391337 -68.174067 
rradius 34.895871 
rwrist -6.676385 
rhand -12.543088 -10.674889 
rfingers 0.000000 
rthumb 13.533620 -40.215152 
lclavicle 0.000000 0.000000 
lhumerus -45.794797 3.489282 86.550859 
lradius 40.395195 
lwrist -11.809762 
lhand -6.367770 14.669024 
lfingers 0.000000 
lthumb 19.478802 43.713343 
rfemur -26.610037 -6.687364 11.135335 
rtibia 33.279692 
rfoot 20.490496 -7.989953 
rtoes 12.256567 
lfemur 17.496768 0.049200 -30.036081 
ltibia 50.258071 
lfoot -36.898458 -5.779553 
ltoes -25.084221 
252
root -8.395482 18.722998 3.202434 -1.111099 4.312512 9.874954
lowerback 0.512032 -2.769206 -11.385179 
upperback -3.365792 -3.971893 0.142067 
thorax -3.057227 -1.663801 6.622790 
lowerneck -11.963849 0.242697 1.155764 
upperneck 19.169584 0.770996 -3.277233 
head 7.909639 0.130623 -1.197393 
rclavicle 0.000000 0.000000 
rhumerus -47.627612 -17.481082 -67.889748 
rradius 34.888941 
rwrist -6.701624 
rhand -12.504975 -10.698667 
rfingers 0.000000 
rthumb 13.570307 -40.236416 
lclavicle 0.000000 0.000000 
lhumerus -46.081086 3.662279 86.388012 
lradius 40.380249 
lwrist -11.805007 
lhand -6.392527 14.658766 
lfingers 0.000000 
lthumb 19.454956 43.705462 
rfemur -26.081686 -7.019110 11.427127 
rtibia 33.993921 
rfoot 18.143318 -6.545299 
rtoes 11.084235 
lfemur 17.480870 0.114466 -29.589323 
ltibia 51.493313 
lfoot -36.612576 -6.740429 
ltoes -25.536958 
253
root -8.418346 18.617386 3.358364 -1.139483 4.363734 9.738827
lowerback 0.514149 -2.781489 -11.321285 
upperback -3.476653 -3.993215 0.178845 
thorax -3.172846 -1.664260 6.630192 
lowerneck -11.969187 0.253713 1.153177 
upperneck 19.277416 0.791377 -3.285408 
head 7.946940 0.138527 -1.198409 
rclavicle 0.000000 0.000000 
rhumerus -48.113167 -17.581450 -67.585460 
rradius 34.867901 
rwrist -6.710571 
rhand -12.458764 -10.707581 
rfingers 0.000000 
rthumb 13.614861 -40.242376 
lclavicle 0.000000 0.000000 
lhumerus -46.379040 3.853898 86.209740 
lradius 40.349305 
lwrist -11.809078 
lhand -6.426996 14.643845 
lfingers 0.000000 
lthumb 19.421837 43.693891 
rfemur -25.538413 -7.346909 11.818773 
rtibia 34.776310 
rfoot 15.356653 -5.106117 
rtoes 10.205278 
lfemur 17.423562 0.180891 -29.025837 
ltibia 52.847875 
lfoot -36.194633 -7.827210 
ltoes -25.968434 
254
root -8.442308 18.506998 3.520777 -1.182142 4.391614 9.510726
lowerback 0.563312 -2.783033 -11.165451 
upperback -3.595720 -4.003700 0.240697 
thorax -3.329062 -1.659054 6.615904 
lowerneck -11.969775 0.267958 1.155195 
upperneck 19.385747 0.816372 -3.298461 
head 7.983732 0.148513 -1.201330 
rclavicle 0.000000 0.000000 
rhumerus -48.607261 -17.698860 -67.260703 
rradius 34.822967 
rwrist -6.695874 
rhand -12.409824 -10.707164 
rfingers 0.000000 
rthumb 13.662057 -40.238824 
lclavicle 0.000000 0.000000 
lhumerus -46.679179 4.068519 86.014598 
lradius 40.294739 
lwrist -11.824550 
lhand -6.473953 14.624923 
lfingers 0.000000 
lthumb 19.376724 43.679528 
rfemur -24.985112 -7.654999 12.323315 
rtibia 35.617176 
rfoot 12.229817 -3.717478 
rtoes 9.668520 
lfemur 17.326599 0.251912 -28.332779 
ltibia 54.317442 
lfoot -35.633518 -9.034260 
ltoes -26.383098 
255
root -8.467090 18.391639 3.690028 -1.247269 4.379473 9.153642
lowerback 0.672904 -2.768027 -10.874346 
upperback -3.719630 -3.995139 0.336824 
thorax -3.533068 -1.645264 6.566034 
lowerneck -11.970279 0.287003 1.164001 
upperneck 19.494355 0.847997 -3.317786 
head 8.020856 0.161524 -1.206784 
rclavicle 0.000000 0.000000 
rhumerus -49.094502 -17.846189 -66.910535 
rradius 34.734883 
rwrist -6.641815 
rhand -12.363371 -10.700657 
rfingers 0.000000 
rthumb 13.706813 -40.229241 
lclavicle 0.000000 0.000000 
lhumerus -46.968028 4.317243 85.797269 
lradius 40.200722 
lwrist -11.857770 
lhand -6.539783 14.602174 
lfingers 0.000000 
lthumb 19.313420 43.663128 
rfemur -24.427234 -7.918395 12.979690 
rtibia 36.513492 
rfoot 8.845830 -2.450292 
rtoes 9.615637 
lfemur 17.184882 0.332953 -27.469237 
ltibia 55.917030 
lfoot -34.887180 -10.374569 
ltoes -26.784918 
